<svg id="Group_3264" data-name="Group 3264" xmlns="http://www.w3.org/2000/svg" xmlns:xlink="http://www.w3.org/1999/xlink" width="311.768" height="103.99" viewBox="0 0 311.768 103.99">
  <defs>
    <linearGradient id="linear-gradient" y1="0.5" x2="1" y2="0.5" gradientUnits="objectBoundingBox">
      <stop offset="0" stop-color="#008afc"/>
      <stop offset="1" stop-color="#0020ce"/>
    </linearGradient>
    <linearGradient id="linear-gradient-2" x1="0.944" y1="0.793" x2="0.096" y2="0.349" gradientUnits="objectBoundingBox">
      <stop offset="0" stop-color="#fc0055" stop-opacity="0.898"/>
      <stop offset="0.08" stop-color="#fc0957" stop-opacity="0.91"/>
      <stop offset="1" stop-color="#ff7771"/>
    </linearGradient>
  </defs>
  <path id="Path_8101" data-name="Path 8101" d="M260.629,294.2a7.9,7.9,0,0,0-2.921-2.223,9.747,9.747,0,0,0-4.008-.777,10.051,10.051,0,0,0-7.577,3.334,11.451,11.451,0,0,0-2.223,3.752,14.29,14.29,0,0,0,0,9.436,11.8,11.8,0,0,0,2.2,3.722,9.912,9.912,0,0,0,3.285,2.459,9.422,9.422,0,0,0,4.057.88,9.1,9.1,0,0,0,4.4-1.033,8.757,8.757,0,0,0,3.152-2.9l6.727,5.016a14.014,14.014,0,0,1-5.9,4.809,18.282,18.282,0,0,1-7.336,1.549,22.572,22.572,0,0,1-7.912-1.347,18.112,18.112,0,0,1-6.26-3.85,17.511,17.511,0,0,1-4.111-6.078,22.231,22.231,0,0,1,0-15.927,17.536,17.536,0,0,1,4.111-6.073,18.194,18.194,0,0,1,6.26-3.855,22.57,22.57,0,0,1,7.912-1.342,19.185,19.185,0,0,1,3.231.285,17.4,17.4,0,0,1,3.309.9,14.693,14.693,0,0,1,3.127,1.652,12.572,12.572,0,0,1,2.69,2.532Zm19.03-5.227a4.169,4.169,0,1,1-4.14-3.934,3.924,3.924,0,0,1,4.14,3.934Zm-8.118,32.316V296.008h7.868v25.285ZM294.5,289.468v6.54h5.635V301.8H294.5v9.151c0,3.049.772,4.426,3.1,4.426a9.557,9.557,0,0,0,2.326-.207l.049,5.95a16.64,16.64,0,0,1-5.065.669,8.4,8.4,0,0,1-5.95-2.169c-1.446-1.5-2.169-3.934-2.169-7.5V301.8H283.43v-5.788h3.363v-6.54Zm16.335,6.54,3.776,12.456c.413,1.451.929,3.363,1.239,4.706h.206c.315-1.4.728-3.255,1.087-4.755L320.3,296h8.359l-5.9,16.65c-3.624,10.085-6.053,14.068-8.9,16.6a13.793,13.793,0,0,1-7.553,3.442l-1.706-6.619a12.5,12.5,0,0,0,3.418-1.342,9.042,9.042,0,0,0,3.255-3.157,2.331,2.331,0,0,0,.413-1.136,3.152,3.152,0,0,0-.31-1.293l-9.308-23.165Zm21.719-11.325h13.6a26.866,26.866,0,0,1,5.375.516,12.186,12.186,0,0,1,4.426,1.785,9.034,9.034,0,0,1,3,3.413,11.67,11.67,0,0,1,1.111,5.409,12.5,12.5,0,0,1-1.033,5.38,8.822,8.822,0,0,1-2.842,3.442,11.462,11.462,0,0,1-4.3,1.869,25.048,25.048,0,0,1-5.38.546h-5.9V321.3h-8.064Zm8.064,15.514h5.37a10.446,10.446,0,0,0,2.095-.207,5.573,5.573,0,0,0,1.81-.7,3.738,3.738,0,0,0,1.293-1.347,4.268,4.268,0,0,0,.492-2.144,3.609,3.609,0,0,0-.649-2.247,4.321,4.321,0,0,0-1.652-1.323,7.025,7.025,0,0,0-2.252-.59,22.31,22.31,0,0,0-2.375-.133h-4.14ZM384.3,315.19a32.817,32.817,0,0,0,.413,6.1h-7.086l-.492-2.532h-.152a9.122,9.122,0,0,1-7.243,3.1,7.748,7.748,0,0,1-8.167-7.755c0-6.57,5.9-9.672,14.84-9.672v-.31c0-1.4-.723-3.309-4.6-3.309a14.259,14.259,0,0,0-6.982,1.913l-1.421-5.084a20.825,20.825,0,0,1,9.835-2.272c8.428,0,11.069,4.961,11.069,10.961Zm-7.6-5.842c-4.14,0-7.346.983-7.346,3.983a2.825,2.825,0,0,0,3.1,3,4.347,4.347,0,0,0,4.086-2.9,5.653,5.653,0,0,0,.157-1.347Zm18.346-13.341,3.772,12.456c.413,1.451.934,3.363,1.244,4.706h.207c.31-1.4.723-3.255,1.087-4.755l3.152-12.406h8.359l-5.9,16.65c-3.594,10.066-6.029,14.068-8.851,16.6a13.8,13.8,0,0,1-7.548,3.442l-1.706-6.619a12.547,12.547,0,0,0,3.413-1.342,9.006,9.006,0,0,0,3.255-3.157,2.33,2.33,0,0,0,.413-1.136,3.152,3.152,0,0,0-.31-1.293l-9.318-23.146ZM415.4,316.847a4.879,4.879,0,0,1,.364-1.864,4.573,4.573,0,0,1,2.532-2.532,4.917,4.917,0,0,1,3.722,0,4.573,4.573,0,0,1,2.532,2.532,4.917,4.917,0,0,1,0,3.722,4.577,4.577,0,0,1-.983,1.529,4.634,4.634,0,0,1-1.524,1.008,5.006,5.006,0,0,1-3.722,0,4.633,4.633,0,0,1-1.524-1.008,4.578,4.578,0,0,1-1.008-1.529,4.833,4.833,0,0,1-.388-1.859Zm16.291-28.9a2.291,2.291,0,1,1,.669,1.652,2.247,2.247,0,0,1-.669-1.652Zm.772,9.461h3.1v23.888h-3.1Zm8.974,11.944a13.347,13.347,0,0,1,.934-5.04,12.053,12.053,0,0,1,2.582-3.983,11.54,11.54,0,0,1,3.983-2.611,13.551,13.551,0,0,1,5.07-.929,13.344,13.344,0,0,1,5.04.929,11.688,11.688,0,0,1,6.594,6.594,14.132,14.132,0,0,1,0,10.08,11.688,11.688,0,0,1-6.594,6.594,13.344,13.344,0,0,1-5.04.929,13.551,13.551,0,0,1-5.07-.929,11.54,11.54,0,0,1-3.983-2.611,12.052,12.052,0,0,1-2.582-3.983A13.31,13.31,0,0,1,441.44,309.348Zm3.1,0a11.025,11.025,0,0,0,.649,3.8,8.792,8.792,0,0,0,1.888,3.1,9.047,9.047,0,0,0,3,2.095,10.326,10.326,0,0,0,7.868,0,9.1,9.1,0,0,0,3-2.095,8.939,8.939,0,0,0,1.888-3.1,11.536,11.536,0,0,0,0-7.6,8.938,8.938,0,0,0-1.888-3.1,9.17,9.17,0,0,0-3-2.095,10.385,10.385,0,0,0-7.867,0,9.115,9.115,0,0,0-3,2.095,8.791,8.791,0,0,0-1.888,3.1,11.043,11.043,0,0,0-.649,3.8Z" transform="translate(-154.804 -260.876)" fill="#131313"/>
  <path id="Path_8102" data-name="Path 8102" d="M72.279,272.327c0,.207.049.393.064.6.034.374.079.743.123,1.116l.029.29c.054.413.118.821.187,1.229v.162a31.961,31.961,0,0,0,1.436,5.35l.069.192a32.887,32.887,0,0,0,6.84,11.221l.029.034c.359.388.733.772,1.111,1.141l.1.089q.54.525,1.1,1.028l.182.152c.354.31.708.615,1.077.9l.28.216c.339.266.679.531,1.028.782l.423.29c.31.216.62.433.939.639.192.128.393.246.59.364.27.172.541.344.816.492l.831.452c.207.113.413.236.624.344.492.256.983.492,1.475.723.211.1.423.182.629.271.629.27,1.264.526,1.913.752a.069.069,0,0,0,.044,0,35.814,35.814,0,0,0,5.021,1.333q1.242.235,2.5.384c.841.1,1.692.157,2.552.182h.9a7.2,7.2,0,0,0,.934-.039l.521-.039a10.946,10.946,0,0,0,7.248-3.855,9.292,9.292,0,0,0,.57-.743,11.112,11.112,0,0,0,.949-1.623,10.563,10.563,0,0,0,.659-1.78c.089-.31.157-.625.216-.944a10.746,10.746,0,0,0,.177-1.967,11.4,11.4,0,0,0-.113-1.357,10.656,10.656,0,0,0-.246-1.313,10.933,10.933,0,0,0-.4-1.254,10.278,10.278,0,0,0-.536-1.185,10.887,10.887,0,0,0-1.18-1.785,11.234,11.234,0,0,0-1.5-1.52,10.905,10.905,0,0,0-2.734-1.687c-.329-.143-.669-.266-1.018-.379-.2-.059-.4-.118-.6-.167s-.413-.1-.624-.138a6.538,6.538,0,0,0-.767-.1c-.261-.025-.521-.034-.787-.049l-.757-.044c-.226,0-.452-.029-.674-.049a6.2,6.2,0,0,1-.664-.1.263.263,0,0,1-.089,0,2,2,0,0,1-.423-.074l-.152-.034-.211-.054-.211-.054h-.039l-.354-.108c-.118-.039-.241-.069-.359-.113s-.266-.088-.4-.143a2.714,2.714,0,0,1-.315-.143,4.613,4.613,0,0,1-.7-.339,3.11,3.11,0,0,1-.384-.192l-.344-.2c-.236-.152-.492-.315-.723-.492l-.123-.089-.123-.093-.221-.182a2.256,2.256,0,0,1-.2-.172l-.2-.172a6.619,6.619,0,0,1-.747-.742,1.626,1.626,0,0,1-.143-.172l-.143-.172-.029-.039-.034-.044c-.118-.143-.221-.3-.334-.452s-.231-.29-.334-.447l-.074-.118-.079-.113c-.1-.152-.2-.315-.3-.492s-.236-.452-.349-.688a.426.426,0,0,0-.074-.167,10.192,10.192,0,0,1-.423-1.077c-.059-.172-.108-.354-.157-.536-.03-.093-.044-.187-.069-.275l-.064-.275-.044-.207-.039-.2-.039-.28c-.034-.207-.059-.413-.089-.624v-1.367a2.314,2.314,0,0,1,0-.261,7.732,7.732,0,0,1,.113-1.131,11.624,11.624,0,0,1,.384-1.5,1.469,1.469,0,0,1,.049-.157c.044-.143.093-.285.148-.423a10.744,10.744,0,0,1,9.707-7.155c14.108-.349,26.553,9.048,31.185,21.966a32.568,32.568,0,0,0,1.873-10.951,32.985,32.985,0,0,0-32.1-32.946,5.273,5.273,0,0,0-.556,0H105.2a33,33,0,0,0-32.67,28.34,32.072,32.072,0,0,0-.33,4.641c0,.526.029,1.067.054,1.588a5.115,5.115,0,0,0,.025.526Z" transform="translate(-72.2 -237.225)" fill="url(#linear-gradient)"/>
  <path id="Path_8103" data-name="Path 8103" d="M136.316,303.746c-4.627-12.918-17.078-22.315-31.185-21.966a10.735,10.735,0,0,0-9.707,7.155c-.054.138-.1.275-.148.423a1.467,1.467,0,0,0-.049.157,10.075,10.075,0,0,0-.384,1.5,7.726,7.726,0,0,0-.113,1.131,2.319,2.319,0,0,0,0,.261v1.347c.029.211.054.418.089.625a.692.692,0,0,0,.039.28c.039.093,0,.138.039.2s.025.138.044.206l.064.275q.093.411.226.811a10.2,10.2,0,0,0,.423,1.077c0,.049.049.108.074.167.113.236.226.462.349.688s.2.325.3.492l.079.113.074.118c.1.157.226.3.334.448s.216.31.334.452l.034.044.029.039.143.172.143.172.364.384c.123.123.251.246.384.359l.2.172a2.243,2.243,0,0,0,.2.172l.221.182.123.093.123.089c.241.177.492.339.723.492l.344.2a3.1,3.1,0,0,0,.384.192,4.614,4.614,0,0,0,.7.339c.108.059.211.1.315.143s.266.1.4.143.241.074.359.113l.354.108h.039l.211.054.211.054.152.034c.138.029.275.054.423.074a.26.26,0,0,0,.089,0,7.459,7.459,0,0,0,1.337.152l.757.044c.266,0,.526.025.787.049a6.538,6.538,0,0,1,.767.1,8.823,8.823,0,0,1,1.229.3c.349.113.688.236,1.018.379a10.9,10.9,0,0,1,2.734,1.687,11.233,11.233,0,0,1,1.5,1.52,10.889,10.889,0,0,1,1.18,1.785,10.27,10.27,0,0,1,.536,1.185,10.927,10.927,0,0,1,.4,1.254,10.648,10.648,0,0,1,.261,1.357,11.4,11.4,0,0,1,.084,1.367,10.746,10.746,0,0,1-.177,1.967c-.059.32-.128.634-.216.944a10.562,10.562,0,0,1-.659,1.78,11.111,11.111,0,0,1-.949,1.623,9.3,9.3,0,0,1-.57.742,10.946,10.946,0,0,1-7.194,3.87l-.521.039c-.29,0-.615.029-.934.039h-.9a29.11,29.11,0,0,1-3.811-.349q-1.445-.221-2.867-.565a33.4,33.4,0,0,1-3.393-.983.069.069,0,0,1-.044,0c-.649-.226-1.283-.492-1.913-.752-.207-.089-.418-.172-.629-.27q-.738-.339-1.475-.723c-.211-.108-.418-.231-.624-.344-.28-.148-.561-.3-.831-.452l-.816-.492c-.2-.118-.4-.236-.59-.364-.32-.206-.629-.423-.939-.639l-.423-.29c-.349-.251-.688-.516-1.028-.782l-.28-.216q-.55-.438-1.077-.9l-.182-.152q-.561-.5-1.1-1.028l-.1-.089q-.57-.556-1.111-1.141l-.03-.034a32.886,32.886,0,0,1-6.84-11.221l-.069-.192a31.963,31.963,0,0,1-1.411-5.35v-.162q-.1-.613-.187-1.229l-.03-.29c-.044-.374-.089-.743-.123-1.116l-.187-1.908v59.16a11.01,11.01,0,1,0,22.019,0v-6.963A32.946,32.946,0,0,0,136.3,303.746Z" transform="translate(-72.205 -259.865)" fill="url(#linear-gradient-2)"/>
  <path id="Path_8104" data-name="Path 8104" d="M98.425,337.355l-.629-.089c-.413-.064-.831-.138-1.239-.211q-.821-.167-1.623-.354a30.813,30.813,0,0,1-3.393-.983h-.049c-.644-.231-1.278-.492-1.908-.752-.216-.093-.423-.177-.629-.275-.492-.231-1.008-.492-1.5-.723-.211-.108-.418-.226-.624-.344s-.561-.3-.831-.452l-.816-.492c-.192-.123-.393-.236-.59-.359-.325-.207-.629-.428-.939-.644-.143-.1-.285-.192-.418-.29-.349-.251-.693-.492-1.033-.782-.089-.074-.187-.138-.275-.216q-.554-.436-1.082-.9l-.177-.152q-.565-.5-1.106-1.028l-.1-.089q-.571-.558-1.116-1.141v-.034a32.912,32.912,0,0,1-6.053-9.269V306.12a.221.221,0,0,1,0,.064c.03.31.093,1.175.118,1.578v.2a8.694,8.694,0,0,0,.118,1.116l.03.29c.054.413.118.821.187,1.229,0,.054,0,.108,0,.162a32.423,32.423,0,0,0,1.421,5.33l.069.187a32.907,32.907,0,0,0,6.84,11.226v.034c.364.388.733.767,1.116,1.136l.1.093c.359.349.723.693,1.106,1.028l.172.152c.359.31.713.615,1.082.9.093.079.192.143.28.211.339.266.679.531,1.028.787l.423.29c.31.216.615.433.939.644l.59.359c.27.172.536.339.816.492l.831.452.624.344q.738.374,1.5.723c.207.1.413.182.629.275q.942.4,1.908.747a.094.094,0,0,0,.044,0l.851.285c.836.266,1.677.492,2.547.7Z" transform="translate(-72.246 -272.241)" fill="#0700bf" opacity="0.4"/>
</svg>
