      <svg xmlns="http://www.w3.org/2000/svg" height="60" width="180" viewBox="70 235 675 220">
        <linearGradient id="a" x1="72.17" y1="304.14" x2="206.39" y2="304.14" gradientUnits="userSpaceOnUse">
          <stop offset="0" stop-color="#008afc" />
          <stop offset="1" stop-color="#0020ce" />
        </linearGradient>
        <linearGradient id="b" x1="198.96" y1="414.2" x2="85.1" y2="340.1" gradientUnits="userSpaceOnUse">
          <stop offset="0" stop-color="#fc0055" stop-opacity=".9" />
          <stop offset=".08" stop-color="#fc0957" stop-opacity=".91" />
          <stop offset="1" stop-color="#ff7771" />
        </linearGradient>
        <path
          fill="#131313"
          d="M287.41 305a16.06 16.06 0 00-5.94-4.52 19.82 19.82 0 00-8.15-1.58 20.44 20.44 0 00-15.41 6.78 23.29 23.29 0 00-4.52 7.63 29.06 29.06 0 000 19.19 24 24 0 004.47 7.57 20.16 20.16 0 006.68 5 19.16 19.16 0 008.25 1.79 18.51 18.51 0 008.94-2.1 17.81 17.81 0 006.41-5.89l13.68 10.2a28.5 28.5 0 01-12 9.78A37.18 37.18 0 01274.9 362a45.9 45.9 0 01-16.09-2.74 36.83 36.83 0 01-12.73-7.83 35.61 35.61 0 01-8.36-12.36 45.21 45.21 0 010-32.39 35.66 35.66 0 018.36-12.35 37 37 0 0112.73-7.84 45.9 45.9 0 0116.09-2.73 39 39 0 016.57.58 35.39 35.39 0 016.73 1.84 29.88 29.88 0 016.36 3.36 25.57 25.57 0 015.47 5.15zM326.11 294.37c0 4.41-3.26 8-8.63 8-5 0-8.3-3.58-8.3-8s3.36-8 8.51-8 8.31 3.47 8.42 8zm-16.51 65.72v-51.42h16v51.42zM356.29 295.37v13.3h11.46v11.78h-11.46v18.61c0 6.2 1.57 9 6.31 9a19.44 19.44 0 004.73-.42l.1 12.1a33.83 33.83 0 01-10.3 1.36c-5.16 0-9.47-1.78-12.1-4.41-2.94-3.05-4.41-8-4.41-15.25v-21h-6.84v-11.77h6.84v-13.3zM389.51 308.67l7.68 25.33c.84 2.95 1.89 6.84 2.52 9.57h.42c.64-2.84 1.48-6.62 2.21-9.67l6.42-25.24h17l-12 33.86c-7.37 20.51-12.31 28.61-18.09 33.76a28.05 28.05 0 01-15.36 7l-3.47-13.46a25.43 25.43 0 006.95-2.73 18.39 18.39 0 006.62-6.42 4.74 4.74 0 00.84-2.31 6.41 6.41 0 00-.63-2.63l-18.93-47.11zM433.68 285.64h27.66a54.64 54.64 0 0110.93 1.05 24.78 24.78 0 019 3.63 18.37 18.37 0 016.1 6.94 23.73 23.73 0 012.26 11 25.41 25.41 0 01-2.1 10.94 17.94 17.94 0 01-5.78 7A23.31 23.31 0 01473 330a50.94 50.94 0 01-10.94 1.11h-12v29h-16.4zm16.4 31.55H461a21.23 21.23 0 004.26-.42 11.33 11.33 0 003.68-1.42 7.6 7.6 0 002.63-2.74 8.68 8.68 0 001-4.36 7.34 7.34 0 00-1.32-4.57 8.79 8.79 0 00-3.36-2.69 14.29 14.29 0 00-4.58-1.2 45.39 45.39 0 00-4.83-.27h-8.42zM538.91 347.68a66.75 66.75 0 00.84 12.41h-14.41l-1-5.15h-.31c-3.37 4.1-8.63 6.31-14.73 6.31-10.41 0-16.61-7.57-16.61-15.77 0-13.36 12-19.67 30.18-19.67v-.63c0-2.84-1.47-6.73-9.36-6.73a29 29 0 00-14.2 3.89L496.42 312a42.35 42.35 0 0120-4.62c17.14 0 22.51 10.09 22.51 22.29zm-15.46-11.88c-8.42 0-14.94 2-14.94 8.1 0 4.1 2.74 6.1 6.31 6.1a8.84 8.84 0 008.31-5.89 11.5 11.5 0 00.32-2.74zM560.76 308.67l7.67 25.33c.84 2.95 1.9 6.84 2.53 9.57h.42c.63-2.84 1.47-6.62 2.21-9.67l6.41-25.23h17l-12 33.86c-7.31 20.47-12.26 28.61-18 33.76a28.06 28.06 0 01-15.35 7l-3.47-13.46a25.51 25.51 0 006.94-2.73 18.31 18.31 0 006.62-6.42 4.74 4.74 0 00.84-2.31 6.41 6.41 0 00-.63-2.63L543 308.67zM602.17 351.05a9.92 9.92 0 01.74-3.79 9.3 9.3 0 015.15-5.15 10 10 0 017.57 0 9.3 9.3 0 015.15 5.15 10 10 0 010 7.57 9.31 9.31 0 01-2 3.11 9.42 9.42 0 01-3.1 2.05 10.18 10.18 0 01-7.57 0 9.42 9.42 0 01-3.1-2.05 9.31 9.31 0 01-2.05-3.11 9.83 9.83 0 01-.79-3.78zM635.3 292.27a4.66 4.66 0 111.36 3.36 4.57 4.57 0 01-1.36-3.36zm1.57 19.24h6.31v48.58h-6.31zM655.12 335.8a27.14 27.14 0 011.9-10.25 24.51 24.51 0 015.25-8.1 23.47 23.47 0 018.1-5.31 27.56 27.56 0 0110.31-1.89 27.14 27.14 0 0110.25 1.89 23.77 23.77 0 0113.41 13.41 28.74 28.74 0 010 20.5 23.77 23.77 0 01-13.41 13.41 27.14 27.14 0 01-10.25 1.89 27.56 27.56 0 01-10.31-1.89 23.47 23.47 0 01-8.1-5.31 24.51 24.51 0 01-5.25-8.1 27.07 27.07 0 01-1.9-10.25zm6.31 0a22.42 22.42 0 001.32 7.73 17.88 17.88 0 003.84 6.31 18.4 18.4 0 006.1 4.26 21 21 0 0016 0 18.5 18.5 0 006.1-4.26 18.18 18.18 0 003.84-6.31 23.46 23.46 0 000-15.46 18.18 18.18 0 00-3.84-6.31 18.65 18.65 0 00-6.1-4.26 21.12 21.12 0 00-16 0 18.54 18.54 0 00-6.1 4.26 17.88 17.88 0 00-3.84 6.31 22.46 22.46 0 00-1.32 7.73z"
        />
        <path
          fill="url(#a)"
          d="M72.36 308.61c0 .42.1.8.13 1.22.07.76.16 1.51.25 2.27l.06.59c.11.84.24 1.67.38 2.5v.33a65 65 0 002.92 10.88l.14.39a66.88 66.88 0 0013.91 22.82l.06.07c.73.79 1.49 1.57 2.26 2.32l.2.18a73.8 73.8 0 002.24 2.09l.37.31c.72.63 1.44 1.25 2.19 1.84l.57.44c.69.54 1.38 1.08 2.09 1.59l.86.59c.63.44 1.26.88 1.91 1.3.39.26.8.5 1.2.74.55.35 1.1.7 1.66 1l1.69.92c.42.23.84.48 1.27.7 1 .52 2 1 3 1.47.43.2.86.37 1.28.55 1.28.55 2.57 1.07 3.89 1.53a.14.14 0 00.09 0 72.83 72.83 0 0010.21 2.71 73.82 73.82 0 005.08.78c1.71.2 3.44.32 5.19.37h1.84c.65 0 1.31 0 1.9-.08l1.06-.08a22.26 22.26 0 0014.74-7.84 18.89 18.89 0 001.16-1.51 22.6 22.6 0 001.93-3.3 21.48 21.48 0 001.34-3.62c.18-.63.32-1.27.44-1.92a21.85 21.85 0 00.36-4A23.18 23.18 0 00162 346a21.66 21.66 0 00-.5-2.67 22.23 22.23 0 00-.81-2.55 20.9 20.9 0 00-1.09-2.41 22.15 22.15 0 00-2.4-3.63 22.84 22.84 0 00-3.05-3.09 22.17 22.17 0 00-5.56-3.43c-.67-.29-1.36-.54-2.07-.77-.41-.12-.82-.24-1.23-.34s-.84-.2-1.27-.28a13.3 13.3 0 00-1.56-.2c-.53-.05-1.06-.07-1.6-.1l-1.54-.09c-.46 0-.92-.06-1.37-.1s-.9-.12-1.35-.21a.53.53 0 01-.18 0c-.3 0-.58-.09-.86-.15l-.31-.07-.43-.11-.43-.11h-.08l-.72-.22c-.24-.08-.49-.14-.73-.23-.27-.09-.54-.18-.81-.29s-.42-.17-.64-.29a9.38 9.38 0 01-1.43-.69 6.31 6.31 0 01-.78-.39l-.7-.41c-.48-.31-1-.64-1.47-1l-.25-.18-.25-.19-.45-.37a4.55 4.55 0 01-.4-.35l-.4-.35a13.46 13.46 0 01-1.52-1.51c-.24-.26-.19-.23-.29-.35l-.29-.35-.06-.08-.07-.09c-.24-.29-.45-.61-.68-.92s-.47-.59-.68-.91l-.15-.24-.16-.23c-.2-.31-.41-.64-.6-1s-.48-.92-.71-1.4c0-.12-.1-.24-.15-.34a20.73 20.73 0 01-.86-2.19c-.12-.35-.22-.72-.32-1.09-.06-.19-.09-.38-.14-.56l-.13-.56-.09-.42-.08-.41-.08-.57c-.07-.42-.12-.84-.18-1.27v-.95-.54-.75-.54a4.7 4.7 0 010-.53 15.72 15.72 0 01.23-2.3 23.63 23.63 0 01.78-3.06 3 3 0 01.1-.32c.09-.29.19-.58.3-.86 5.15-14.29 19.22-14.54 19.74-14.55 28.69-.71 54 18.4 63.42 44.67a66.23 66.23 0 003.81-22.27 67.08 67.08 0 00-65.28-67 10.76 10.76 0 00-1.13 0h-.7a67.12 67.12 0 00-66.44 57.64 65.22 65.22 0 00-.67 9.43c0 1.07.06 2.17.11 3.23-.03-.12.02.52.05 1.07z"
        />
        <path
          fill="url(#b)"
          d="M202.58 326.46c-9.41-26.27-34.73-45.38-63.42-44.67-.52 0-14.59.26-19.74 14.55-.11.28-.21.56-.3.86a3 3 0 00-.1.32 20.5 20.5 0 00-.78 3.06 15.72 15.72 0 00-.23 2.3 4.7 4.7 0 000 .53V306.15c.06.43.11.85.18 1.27 0 .19 0 .38.08.57s0 .28.08.41.05.28.09.42l.13.56a17.33 17.33 0 00.46 1.65 20.73 20.73 0 00.86 2.19c0 .1.1.22.15.34.23.48.46.94.71 1.4s.4.66.6 1l.16.23.15.24c.21.32.46.61.68.91s.44.63.68.92l.07.09.06.08.29.35.29.35.74.78c.25.25.51.5.78.73l.4.35a4.55 4.55 0 00.4.35l.45.37.25.19.25.18c.49.36 1 .69 1.47 1l.7.41a6.31 6.31 0 00.78.39 9.38 9.38 0 001.43.69c.22.12.43.2.64.29s.54.2.81.29c.24.09.49.15.73.23l.72.22h.08l.43.11.43.11.31.07c.28.06.56.11.86.15a.53.53 0 00.18 0 15.16 15.16 0 002.72.31l1.54.09c.54 0 1.07.05 1.6.1a13.3 13.3 0 011.56.2 17.93 17.93 0 012.5.62c.71.23 1.4.48 2.07.77a22.17 22.17 0 015.56 3.43 22.84 22.84 0 013.05 3.09 22.15 22.15 0 012.4 3.63 20.9 20.9 0 011.09 2.41 22.23 22.23 0 01.81 2.55A21.66 21.66 0 01162 346a23.18 23.18 0 01.17 2.78 21.85 21.85 0 01-.36 4c-.12.65-.26 1.29-.44 1.92a21.48 21.48 0 01-1.34 3.62 22.6 22.6 0 01-1.93 3.3 18.89 18.89 0 01-1.16 1.51 22.26 22.26 0 01-14.63 7.87l-1.06.08c-.59 0-1.25.06-1.9.08h-1.84a59.22 59.22 0 01-7.75-.71 69.76 69.76 0 01-5.83-1.15 67.86 67.86 0 01-6.9-2 .14.14 0 01-.09 0c-1.32-.46-2.61-1-3.89-1.53-.42-.18-.85-.35-1.28-.55-1-.46-2-.95-3-1.47-.43-.22-.85-.47-1.27-.7-.57-.3-1.14-.6-1.69-.92l-1.66-1c-.4-.24-.81-.48-1.2-.74-.65-.42-1.28-.86-1.91-1.3l-.86-.59c-.71-.51-1.4-1.05-2.09-1.59l-.57-.44a54.64 54.64 0 01-2.19-1.84l-.37-.31a73.8 73.8 0 01-2.24-2.09l-.2-.18a61.83 61.83 0 01-2.26-2.32l-.06-.07a66.88 66.88 0 01-13.91-22.82l-.14-.39a65 65 0 01-2.87-10.88v-.33a68.4 68.4 0 01-.38-2.5l-.06-.59c-.09-.76-.18-1.51-.25-2.27l-.38-3.88v120.31a22.39 22.39 0 0044.78 0v-14.16a67 67 0 0085.55-85.69z"
        />
        <path
          fill="#0700bf"
          opacity=".4"
          d="M125.44 369.64l-1.28-.18c-.84-.13-1.69-.28-2.52-.43q-1.67-.34-3.3-.72a62.66 62.66 0 01-6.9-2h-.1c-1.31-.47-2.6-1-3.88-1.53-.44-.19-.86-.36-1.28-.56-1-.47-2.05-1-3.06-1.47-.43-.22-.85-.46-1.27-.7s-1.14-.6-1.69-.92l-1.66-1c-.39-.25-.8-.48-1.2-.73-.66-.42-1.28-.87-1.91-1.31-.29-.21-.58-.39-.85-.59-.71-.51-1.41-1-2.1-1.59-.18-.15-.38-.28-.56-.44a48.67 48.67 0 01-2.2-1.84l-.36-.31a63.9 63.9 0 01-2.25-2.09l-.2-.18a70.85 70.85 0 01-2.27-2.32v-.07a66.93 66.93 0 01-12.31-18.85v-23.69a.45.45 0 010 .13c.06.63.19 2.39.24 3.21v.41c0 .75.14 1.51.24 2.27l.06.59c.11.84.24 1.67.38 2.5a3.31 3.31 0 010 .33 65.94 65.94 0 002.89 10.84l.14.38a66.92 66.92 0 0013.91 22.83v.07c.74.79 1.49 1.56 2.27 2.31l.2.19c.73.71 1.47 1.41 2.25 2.09l.35.31c.73.63 1.45 1.25 2.2 1.84.19.16.39.29.57.43.69.54 1.38 1.08 2.09 1.6l.86.59c.63.44 1.25.88 1.91 1.31l1.2.73c.55.35 1.09.69 1.66 1l1.69.92 1.27.7q1.5.76 3.06 1.47c.42.2.84.37 1.28.56a65 65 0 003.88 1.52.19.19 0 00.09 0l1.73.58c1.7.54 3.41 1 5.18 1.42z"
        />
      </svg>
